HIERARCHY
ROOT root
{
	OFFSET	0	13.1	24.9
	CHANNELS 6  Xposition Yposition Zposition Xrotation Yrotation Zrotation
	JOINT spine_1
	{
		OFFSET	0	9.99999	0
		CHANNELS 3  Xrotation Yrotation Zrotation
		JOINT spine_2
		{
			OFFSET	0	112	-10
			CHANNELS 3  Xrotation Yrotation Zrotation
			JOINT spine_3
			{
				OFFSET	0	206.5	19.3
				CHANNELS 3  Xrotation Yrotation Zrotation
				JOINT spine_4
				{
					OFFSET	0	110.4	14.6
					CHANNELS 3  Xrotation Yrotation Zrotation
					JOINT neck_1
					{
						OFFSET	0	71.8	-50.3
						CHANNELS 3  Xrotation Yrotation Zrotation
						JOINT neck_2
						{
							OFFSET	0	86.2	-25.8
							CHANNELS 3  Xrotation Yrotation Zrotation
							JOINT head_ee
							{
								OFFSET	0	179.8	-8.7
								CHANNELS 3  Xrotation Yrotation Zrotation
								End Site
								{
									OFFSET	1	0	0
								}
							}
						}
					}
					JOINT left_clavicle
					{
						OFFSET	-43.2	22.4	-70.8
						CHANNELS 3  Xrotation Yrotation Zrotation
						JOINT left_shoulder
						{
							OFFSET	-93.9	-5.79999	48.7
							CHANNELS 3  Xrotation Yrotation Zrotation
							JOINT left_elbow
							{
								OFFSET	-291.4	-30.8	15.2
								CHANNELS 3  Xrotation Yrotation Zrotation
								JOINT left_lowarm_twist
								{
									OFFSET	-110.7	-3.89999	13.6
									CHANNELS 3  Xrotation Yrotation Zrotation
									JOINT left_hand
									{
										OFFSET	-110.7	-3.89999	13.6
										CHANNELS 3  Xrotation Yrotation Zrotation
										JOINT left_ee
										{
											OFFSET	-80.8	-5.10001	12.1
											CHANNELS 3  Xrotation Yrotation Zrotation
											End Site
											{
												OFFSET	1	0	0
											}
										}
									}
								}
							}
						}
					}
					JOINT right_clavicle
					{
						OFFSET	43.2	22.4	-70.8
						CHANNELS 3  Xrotation Yrotation Zrotation
						JOINT right_shoulder
						{
							OFFSET	93.9	-5.79999	48.7
							CHANNELS 3  Xrotation Yrotation Zrotation
							JOINT right_elbow
							{
								OFFSET	291.4	-30.8	15.2
								CHANNELS 3  Xrotation Yrotation Zrotation
								JOINT right_lowarm_twist
								{
									OFFSET	110.7	-3.89999	13.6
									CHANNELS 3  Xrotation Yrotation Zrotation
									JOINT right_hand
									{
										OFFSET	110.7	-3.89999	13.6
										CHANNELS 3  Xrotation Yrotation Zrotation
										JOINT right_ee
										{
											OFFSET	80.8	-5.10001	12.1
											CHANNELS 3  Xrotation Yrotation Zrotation
											End Site
											{
												OFFSET	1	0	0
											}
										}
									}
								}
							}
						}
					}
				}
			}
		}
	}
	JOINT left_hip
	{
		OFFSET	-82.8	-127.5	0.300001
		CHANNELS 3  Xrotation Yrotation Zrotation
		JOINT left_knee
		{
			OFFSET	-28.2	-396.7	2.2
			CHANNELS 3  Xrotation Yrotation Zrotation
			JOINT left_ankle
			{
				OFFSET	-11.7	-411.3	35.4
				CHANNELS 3  Xrotation Yrotation Zrotation
				JOINT left_toes
				{
					OFFSET	0	-60	-88.6
					CHANNELS 3  Xrotation Yrotation Zrotation
					JOINT left_foot_ee
					{
						OFFSET	-22.5	-16.5	-42.2
						CHANNELS 3  Xrotation Yrotation Zrotation
						End Site
						{
							OFFSET	1	0	0
						}
					}
				}
			}
		}
	}
	JOINT right_hip
	{
		OFFSET	82.8	-127.5	0.300001
		CHANNELS 3  Xrotation Yrotation Zrotation
		JOINT right_knee
		{
			OFFSET	28.2	-396.7	2.2
			CHANNELS 3  Xrotation Yrotation Zrotation
			JOINT right_ankle
			{
				OFFSET	11.7	-411.3	35.4
				CHANNELS 3  Xrotation Yrotation Zrotation
				JOINT right_toes
				{
					OFFSET	0	-60	-88.6
					CHANNELS 3  Xrotation Yrotation Zrotation
					JOINT right_foot_ee
					{
						OFFSET	22.5	-16.5	-42.2
						CHANNELS 3  Xrotation Yrotation Zrotation
						End Site
						{
							OFFSET	1	0	0
						}
					}
				}
			}
		}
	}
}
MOTION
Frames: 15
Frame Time: 0.02
825.651 677.601 -1158.88 -152.328 -59.9963 -152.424 2.09625 -0.243287 -2.35021 2.09931 -0.0932863 -2.36092 2.10294 0.319467 -2.34108 2.0953 -0.0541645 -2.36214 0.767071 7.08183 6.48393 0.887822 7.17638 7.71023 -0.0 0.0 -0.0 2.87302 6.69752 5.96023 1.83658 -26.1255 67.0432 2.73271 -53.5365 1.37869 61.6236 -1.92059 -7.25565 -0.414852 21.3009 6.10827 -0.0 0.0 -0.0 4.81073 -1.71532 -9.34958 -27.5042 36.1119 -59.6525 0.262418 7.40676 -0.0169854 1.96927 -0.0652105 0.243055 3.98629 -20.8443 -34.231 0.0 0.0 0.0 1.10849 6.25157 -2.71179 -25.2609 0.196223 3.84025 37.8826 14.14 -4.72636 -25.3555 0.0 0.0 -0.0 0.0 -0.0 49.7795 3.1888 -5.15521 -22.4434 -0.258618 -3.41243 -10.1571 -4.2507 -1.51914 -2.78623 0.0 0.0 0.0 0.0 0.0 
842.065 674.238 -1140.19 -151.387 -60.9318 -151.932 1.72319 -0.289015 -2.38972 1.72636 -0.13641 -2.40326 1.7322 0.299819 -2.38839 1.72425 -0.0810324 -2.40576 1.16894 9.2938 6.79821 1.33491 10.7643 8.24394 -0.0 0.0 -0.0 1.78077 5.87334 3.92777 1.643 -26.7647 68.0432 2.71864 -53.3952 1.36738 65.7973 -2.31633 -7.6159 -0.117147 19.8838 7.32523 -0.0 0.0 -0.0 4.64087 -1.15111 -9.00414 -25.8406 37.2085 -61.1129 0.309525 8.71743 -0.0235923 1.50262 -0.0505146 0.185262 4.10773 -26.2813 -35.9963 0.0 0.0 0.0 2.55228 6.05523 -4.38983 -29.5517 0.0609761 4.48472 38.1423 16.7337 -4.78936 -24.7471 0.0 0.0 -0.0 0.0 -0.0 50.6641 1.96494 -4.28527 -25.1192 -0.199862 -3.81882 -9.27682 -1.17184 -1.3936 -3.17568 0.0 0.0 0.0 0.0 0.0 
866.553 680.316 -1128.29 -153.615 -61.2688 -154.296 1.24638 -0.173399 -2.38321 1.24954 -0.0214414 -2.38941 1.25086 0.430262 -2.35047 1.24315 0.0537591 -2.3889 3.87975 11.7233 5.65036 4.1387 15.4407 7.04414 -0.0 0.0 -0.0 1.67888 5.76782 3.73408 0.425333 -22.417 70.1497 2.76536 -53.861 1.405 64.2327 -2.1649 -7.48422 -0.835534 17.3118 1.94451 -0.0 0.0 -0.0 5.06729 -1.36324 -9.83253 -25.7851 37.7587 -60.0335 0.305425 8.60371 -0.0229751 -1.41347 0.0519423 -0.173024 3.81351 -30.8034 -34.3936 0.0 0.0 0.0 4.01484 6.36435 -5.76207 -34.955 -0.177387 5.27927 34.765 24.5144 -4.6234 -23.4427 0.0 0.0 -0.0 0.0 -0.0 46.0137 6.08875 -5.7743 -20.0469 -0.295079 -3.04654 -3.58261 -7.75939 -0.528463 -7.69459 0.0 0.0 0.0 0.0 0.0 
888.082 688.678 -1110.61 -153.62 -61.1974 -154.566 1.06976 0.00419246 -2.18406 1.0724 0.143128 -2.17937 1.06731 0.559037 -2.11134 1.06115 0.218658 -2.17309 5.69965 10.8984 5.74122 5.92239 13.5337 7.05586 -0.0 0.0 -0.0 2.13981 4.86678 4.5044 -3.598 -22.8964 68.4385 2.66963 -52.8953 1.32816 60.6552 -1.83261 -7.16804 -0.997834 14.5779 -0.235635 -0.0 0.0 -0.0 5.76667 -0.974945 -11.178 -23.5113 39.1901 -59.9933 0.297192 8.37513 -0.0217597 -0.71785 0.0258453 -0.0880306 4.13907 -30.7363 -36.6193 0.0 0.0 0.0 9.301 8.25661 -9.37382 -43.392 -0.696544 6.46648 31.6657 26.6741 -4.34257 -23.7231 0.0 0.0 -0.0 0.0 -0.0 43.1705 3.16565 -4.97612 -18.1666 -0.312954 -2.7586 4.11814 1.46824 0.604886 -16.7278 0.0 0.0 0.0 0.0 0.0 
914.088 692.413 -1095.08 -154.09 -62.0886 -155.398 0.912091 -0.122051 -1.77242 0.913839 -0.00903758 -1.7766 0.914502 0.336867 -1.7444 0.91026 0.0571891 -1.7757 7.07192 11.865 5.20267 7.35935 15.3601 6.41693 -0.0 0.0 -0.0 2.01236 5.65385 4.33128 -6.0565 -24.7415 68.1319 2.65032 -52.6952 1.31279 55.612 -1.39921 -6.68872 -1.033 12.6937 -1.2843 -0.0 0.0 -0.0 5.74615 -0.650042 -11.1323 -21.5279 39.7911 -60.3373 0.37448 10.5095 -0.0344412 -1.55046 0.0572029 -0.189725 3.93405 -30.8436 -35.2126 0.0 0.0 0.0 16.6141 8.61305 -12.5053 -56.2894 -1.81291 8.10411 31.5764 26.9963 -4.34162 -22.7548 0.0 0.0 -0.0 0.0 -0.0 39.4864 3.96928 -4.69722 -17.449 -0.317283 -2.64857 14.416 3.52619 2.05421 -23.015 0.0 0.0 0.0 0.0 0.0 
931.318 699.478 -1084.4 -155.026 -61.553 -156.075 0.800042 -0.157251 -1.58773 0.801443 -0.055914 -1.59451 0.803378 0.258472 -1.57442 0.799918 0.00661033 -1.59548 8.79253 10.5941 2.68127 9.0975 15.1539 3.33738 -0.0 0.0 -0.0 2.17091 5.83986 4.63355 -7.07875 -19.5027 68.8911 2.38266 -49.7199 1.10409 50.8155 -1.02781 -6.1995 -1.93159 10.9909 -7.78136 -0.0 0.0 -0.0 6.00519 -4.27838 -11.6649 -18.4551 39.4637 -59.92 0.345999 9.72605 -0.0294378 -1.53648 0.0566643 -0.188021 3.59881 -29.7367 -32.8552 0.0 0.0 0.0 21.0708 6.41841 -12.7614 -64.9105 -2.7529 9.04332 32.1346 27.0195 -4.40588 -22.0364 0.0 0.0 -0.0 0.0 -0.0 37.5536 4.56739 -6.01013 -15.1432 -0.321862 -2.29486 22.0769 -3.02506 2.99175 -28.1783 0.0 0.0 0.0 0.0 0.0 
948.465 699.487 -1075.7 -153.885 -61.7871 -154.743 0.937009 -0.102855 -1.5134 0.938283 -0.00635612 -1.51687 0.938722 0.288301 -1.48924 0.93563 0.0495129 -1.51608 8.9392 10.7389 2.05022 9.29031 15.9426 2.56574 -0.0 0.0 -0.0 1.61366 7.28056 3.74279 -9.00673 -23.4153 68.4753 2.33021 -49.0901 1.06427 48.8896 -0.890467 -5.99469 -1.569 10.4631 -5.70241 -0.0 0.0 -0.0 6.11108 -1.86552 -11.857 -20.0308 40.6986 -59.5833 0.364849 10.245 -0.0327065 -3.14317 0.121296 -0.38296 3.5816 -29.5584 -32.7209 0.0 0.0 0.0 25.6077 10.0121 -16.2803 -68.6938 -3.20816 9.40923 30.1506 26.8284 -4.17203 -21.7977 0.0 0.0 -0.0 0.0 -0.0 35.7518 4.41319 -6.27294 -13.6273 -0.317116 -2.06232 28.0813 2.61326 3.72466 -30.32 0.0 0.0 0.0 0.0 0.0 
960.027 700.612 -1060.31 -154.924 -61.2463 -155.113 0.873893 -0.12747 -1.3312 0.874878 -0.0425121 -1.33661 0.876115 0.21925 -1.31919 0.873686 0.00817628 -1.33726 7.94957 10.5955 0.273389 8.39317 17.4824 0.492357 -0.0 0.0 -0.0 1.51101 9.22863 3.72395 -10.0532 -21.5423 68.0943 2.10616 -46.2091 0.898635 45.8242 -0.68634 -5.65964 -1.75903 9.66522 -7.30189 -0.0 0.0 -0.0 6.88941 -2.20695 -13.3663 -18.2314 42.2372 -59.1117 0.330794 9.30629 -0.0269239 -4.40324 0.175801 -0.534549 3.26282 -29.3347 -30.599 0.0 0.0 0.0 27.5126 3.91088 -14.7662 -69.6706 -3.32957 9.4988 24.062 28.3547 -3.46356 -23.8845 0.0 0.0 -0.0 0.0 -0.0 33.9309 6.58751 -8.50019 -11.3598 -0.29854 -1.71493 32.2152 -0.647528 4.13743 -32.9121 0.0 0.0 0.0 0.0 0.0 
974.049 704.668 -1054.3 -152.735 -62.0925 -153.374 1.05816 -0.0564055 -1.13719 1.05888 0.0160666 -1.13848 1.05868 0.234473 -1.11419 1.05696 0.0555768 -1.13723 6.95819 10.3576 0.512359 7.34869 17.0287 0.863781 -0.0 0.0 -0.0 1.84016 8.56957 4.24704 -10.3073 -22.434 68.1171 1.77879 -41.3814 0.671863 44.3888 -0.597002 -5.49914 -2.07894 11.034 -8.70887 -0.0 0.0 -0.0 6.74637 -2.21931 -13.0884 -16.6668 43.2688 -59.7043 0.369755 10.3798 -0.0335847 -4.09855 0.162316 -0.498004 3.34538 -29.7789 -31.1933 0.0 0.0 0.0 30.734 4.67449 -13.9317 -69.8937 -3.35751 9.51896 22.5329 28.4654 -3.26767 -24.6033 0.0 0.0 -0.0 0.0 -0.0 33.0645 8.24707 -7.73916 -10.1604 -0.283159 -1.53155 33.7528 1.29026 4.3077 -34.5187 0.0 0.0 0.0 0.0 0.0 
986.8 706.109 -1045.01 -150.699 -62.6569 -151.045 1.37046 -0.0408667 -1.05119 1.37107 0.0261022 -1.05166 1.37065 0.222045 -1.02828 1.36918 0.0568695 -1.05044 6.55643 10.0999 -0.108484 6.95898 17.2048 0.164528 -0.0 0.0 -0.0 1.87746 8.65365 4.31896 -12.5827 -21.9484 68.0733 1.77057 -41.2499 0.66644 42.4055 -0.480261 -5.27386 -2.02609 9.71922 -9.0081 -0.0 0.0 -0.0 6.42 -0.844647 -12.4514 -13.4005 44.6575 -60.0816 0.433345 12.1158 -0.0459895 -4.10604 0.162645 -0.498902 3.39815 -29.2072 -31.4651 0.0 0.0 0.0 33.7116 4.49099 -13.9907 -69.4216 -3.29848 9.47616 20.0784 28.556 -2.94339 -25.8368 0.0 0.0 -0.0 0.0 -0.0 32.1985 8.39208 -7.92934 -9.94968 -0.28006 -1.49936 39.1068 2.59394 4.82244 -34.4268 0.0 0.0 0.0 0.0 0.0 
1007.43 715.374 -1031.85 -149.432 -61.4276 -149.576 1.81152 -0.00318061 -1.01261 1.81209 0.0612577 -1.01076 1.81098 0.241397 -0.983427 1.80964 0.0830614 -1.00921 6.13079 10.3438 -0.238357 6.55362 17.7984 0.0591794 -0.0 0.0 -0.0 1.6788 9.76246 4.05845 -14.0773 -20.8113 68.7104 1.55093 -37.5318 0.526978 41.5598 -0.432872 -5.1766 -2.42073 11.5792 -10.6432 -0.0 0.0 -0.0 6.63066 0.175668 -12.8597 -8.62189 46.2096 -60.3121 0.435576 12.1763 -0.0464589 -4.29822 0.171131 -0.521961 3.13742 -28.9746 -29.7375 0.0 0.0 0.0 35.8 1.31976 -10.7526 -67.3348 -3.04184 9.28123 17.3503 27.2437 -2.5487 -26.719 0.0 0.0 -0.0 0.0 -0.0 31.3705 9.06132 -9.3108 -9.98272 -0.280554 -1.50441 37.8206 1.73407 4.69852 -35.6683 0.0 0.0 0.0 0.0 0.0 
1024.09 717.121 -1024.53 -150.835 -60.7688 -150.885 1.83165 0.0680582 -0.627898 1.83187 0.107874 -0.622295 1.83067 0.217434 -0.592969 1.8302 0.121059 -0.619865 4.74487 10.7179 1.20123 5.08519 17.3983 1.87812 -0.0 0.0 -0.0 0.881513 8.52232 2.55907 -13.3247 -15.487 71.3965 1.41087 -34.9479 0.444162 42.4511 -0.482857 -5.27908 -2.8931 15.0061 -11.8776 -0.0 0.0 -0.0 6.48773 -0.0257273 -12.5787 -5.08937 47.766 -60.6202 0.54429 15.0897 -0.0720914 -6.91282 0.294238 -0.832757 3.01831 -30.2691 -29.1684 0.0 0.0 0.0 36.5136 -6.49722 -5.20441 -65.7074 -2.84676 9.12286 16.3327 28.6676 -2.43081 -27.7618 0.0 0.0 -0.0 0.0 -0.0 30.5968 10.4342 -10.9322 -9.49096 -0.272905 -1.42934 37.0853 -7.89792 4.60104 -36.1407 0.0 0.0 0.0 0.0 0.0 
1042.69 720.391 -1012.52 -152.598 -60.8901 -152.673 1.85823 0.136794 -0.220515 1.85824 0.150549 -0.211364 1.85768 0.185837 -0.181119 1.85766 0.1549 -0.208196 3.95814 9.85673 -0.607889 4.31599 17.588 -0.141329 -0.0 0.0 -0.0 1.29556 9.58239 3.37992 -16.5819 -20.7456 68.968 1.17674 -30.2379 0.317937 40.2323 -0.3614 -5.02258 -2.62712 13.5445 -10.9588 -0.0 0.0 -0.0 6.6785 0.763583 -12.9504 -4.4448 47.7764 -59.8258 0.652354 17.9087 -0.102791 -4.60387 0.184787 -0.558575 3.14893 -28.8046 -29.7863 0.0 0.0 0.0 40.9009 -3.98229 -8.51062 -65.1663 -2.78292 9.069 13.8167 27.8483 -2.06356 -28.0967 0.0 0.0 -0.0 0.0 -0.0 29.0727 11.596 -10.4709 -11.3627 -0.298573 -1.71538 39.5238 0.637959 4.83977 -35.7507 0.0 0.0 0.0 0.0 0.0 
1065.53 721.988 -1008.96 -156.731 -59.4121 -156.598 1.70559 0.0981351 -0.20847 1.70561 0.111202 -0.201803 1.70521 0.14589 -0.178343 1.70518 0.115893 -0.199146 3.26322 9.57736 -1.39508 3.6291 17.861 -0.962667 -0.0 0.0 -0.0 1.01056 9.59908 2.88766 -17.5612 -21.0447 70.947 1.01371 -26.6634 0.240228 39.8059 -0.339205 -4.97276 -3.10799 17.8709 -11.655 -0.0 0.0 -0.0 7.11814 -0.137573 -13.8263 -1.60418 48.0726 -59.096 0.928847 24.7079 -0.203442 -5.09482 0.207131 -0.617235 2.65185 -28.9846 -26.6726 0.0 0.0 0.0 42.3784 -4.10721 -10.4373 -59.0944 -2.10299 8.42492 10.4245 23.7306 -1.53811 -28.7284 0.0 0.0 -0.0 0.0 -0.0 28.4827 15.3781 -10.8429 -15.7985 -0.322008 -2.39539 39.2948 -0.764795 4.8096 -35.3926 0.0 0.0 0.0 0.0 0.0 
1087.07 721.308 -1012.61 -157.842 -58.1684 -158.632 1.68902 0.0816865 -0.209267 1.68904 0.0948371 -0.203645 1.6887 0.130182 -0.183079 1.68867 0.0996343 -0.201341 1.41272 10.2539 -0.807935 1.73666 18.7778 -0.0188606 -0.0 0.0 -0.0 1.11602 10.8828 3.18744 -17.4434 -18.8627 72.9042 0.855526 -22.9671 0.173806 39.6488 -0.331122 -4.95437 -3.9303 23.8295 -13.1107 -0.0 0.0 -0.0 7.98866 0.561939 -15.5725 -2.99078 46.1309 -54.5529 1.30036 32.7865 -0.382565 -5.13027 0.208764 -0.621463 2.34823 -27.2059 -24.4417 0.0 0.0 0.0 42.1369 -4.17975 -8.54319 -58.3177 -2.0211 8.3375 8.53432 25.4284 -1.27782 -26.4414 0.0 0.0 -0.0 0.0 -0.0 28.3453 21.7391 -11.27 -19.0973 -0.305287 -2.90119 41.4574 -13.0802 5.03387 -32.174 0.0 0.0 0.0 0.0 0.0 
